<svg xmlns="http://www.w3.org/2000/svg" width="440.704" height="474.719" viewBox="0 0 440.704 474.719"><defs><style>.a{fill:none;stroke:#ffcd00;}</style></defs><g transform="translate(0.5 0.513)"><path class="a" d="M351.251,303.62a90.475,90.475,0,0,1-4.223-18.181,234.154,234.154,0,0,1-2.7-35.162c.431-49.107,14.356-94.185,43.059-134.1,38.281-53.235,90.364-85.708,154.561-97.8C592.28,8.9,641.753,12.9,689.39,32.961A219.431,219.431,0,0,1,718,47.707c2.446,1.482,3.844,1.16,5.745-.789,5.936-6.074,12.063-11.966,18.14-17.9.63-.615,1.535-1.591,2.123-1.469,1.081.22.933,1.584,1.137,2.544q13.216,61.982,26.433,123.967c.707,3.313,1.374,6.639,2.031,9.965.49,2.485-.46,3.234-2.954,2.688q-26.651-5.827-53.334-11.529-40.91-8.814-81.82-17.652c-.9-.194-2.268-.013-2.514-1.223-.2-.963.906-1.476,1.53-2.087,6.776-6.678,13.489-13.429,20.423-19.939,2.127-1.995,1.878-2.715-.588-3.793a159.486,159.486,0,0,0-37.3-10.914c-20.611-3.5-40.909-1.683-61.373,1.942-27.492,4.867-53.9,12.643-78.515,25.861-62.2,33.4-102.76,84.131-121.1,152.388C353.963,287.586,352.831,295.664,351.251,303.62Z" transform="translate(-344.325 -13.486)"/><path class="a" d="M415.783,69c-1.92,6.1-4.11,11.634-5.531,17.415-11.855,48.134-1.9,91.588,28.914,130.02,25.134,31.344,58.071,50.6,97.675,57,48.767,7.888,92.445-3.825,129.638-37.226a155.662,155.662,0,0,0,24.7-27.452c1.53-2.224,2.627-2.458,4.624-.414Q724.9,238.1,754.172,267.685c1.463,1.479,1.463,2.346.129,3.858-37.23,42.166-82.3,71.3-137.833,83.119a247.2,247.2,0,0,1-62.732,5.37c-74.984-3.372-137.4-32.891-186.115-90.471a14.713,14.713,0,0,1-3.014-5.613,206.3,206.3,0,0,1-7.013-72.257c2.9-37.493,16.4-71.1,38.729-101.238a182.333,182.333,0,0,1,16.48-19.4A4.933,4.933,0,0,1,415.783,69Z" transform="translate(-315.46 113.436)"/></g></svg>